<?xml version="1.0" encoding="utf-8"?>
<!-- Generator: Adobe Illustrator 28.0.0, SVG Export Plug-In . SVG Version: 6.00 Build 0)  -->
<svg version="1.1" id="Layer_1" xmlns="http://www.w3.org/2000/svg" xmlns:xlink="http://www.w3.org/1999/xlink" x="0px" y="0px"
	 viewBox="0 0 1000 1000" style="enable-background:new 0 0 1000 1000;" xml:space="preserve">
<style type="text/css">
	.st0{clip-path:url(#SVGID_00000025415918143452291530000003500609607389690038_);}
	.st1{clip-path:url(#SVGID_00000099622873604960914130000012121306997445132953_);}
	
		.st2{clip-path:url(#SVGID_00000085241030421850172140000015044533321125237638_);fill:url(#SVGID_00000155141718571280803930000008436472204674408368_);}
	
		.st3{clip-path:url(#SVGID_00000151536697713884928960000018369216284247433621_);fill:url(#SVGID_00000148622986250743476120000013173900399574133920_);}
</style>
<g>
	<defs>
		<rect id="SVGID_1_" x="30.16" y="141.35" width="996.03" height="717.3"/>
	</defs>
	<clipPath id="SVGID_00000008834018025852770260000012321589161004247720_">
		<use xlink:href="#SVGID_1_"  style="overflow:visible;"/>
	</clipPath>
	<g style="clip-path:url(#SVGID_00000008834018025852770260000012321589161004247720_);">
		<g>
			<defs>
				
					<rect id="SVGID_00000150820696493413873120000012515512327985454495_" x="-565.19" y="-111.08" width="2131.53" height="1507.14"/>
			</defs>
			<clipPath id="SVGID_00000027581670090522778130000002743554080957735582_">
				<use xlink:href="#SVGID_00000150820696493413873120000012515512327985454495_"  style="overflow:visible;"/>
			</clipPath>
			<g style="clip-path:url(#SVGID_00000027581670090522778130000002743554080957735582_);">
				<g>
					<defs>
						<path id="SVGID_00000021111830984844466420000010167132163595267983_" d="M544.02,364.61c-0.25,0.18-0.5,0.36-0.73,0.57
							l-5.14,4.09l-0.73,0.6l-5.7,4.93l-4.33,4.09l-1.82,1.78l-3.6,3.72l-2.27,2.43l-3.07,3.48l-5.14,6.27l-2.59,3.4l-2.51,3.44
							l-2.43,3.48l-2.39,3.61c-0.13,0.24-0.29,0.48-0.45,0.73c-0.16,0.21-0.29,0.45-0.4,0.69c-0.08,0.04-0.13,0.12-0.13,0.16
							c5.1,8.12,9.52,16.65,13.24,25.49v0.04l11.21,98.1l0.04,0.61l12.07,105.46v0.04c-14.32,11.97-26.65,26.13-36.55,41.96
							c-9.89-15.83-22.22-29.99-36.55-41.96H464v-0.04l12.14-106.15l11.21-98.01v-0.04l0.24-0.57l1.74-3.96
							c0.57-1.29,1.17-2.59,1.82-3.89c0.61-1.29,1.21-2.59,1.9-3.84c1.42-2.79,2.95-5.55,4.49-8.25l1.78-2.95l1.21-2.06
							c0.04-0.04,0.08-0.12,0.12-0.16c-11.45-18.25-26.13-34.26-43.31-47.26c14.3,2.08,28.73,3.12,43.18,3.12
							C515.09,367.74,529.62,366.7,544.02,364.61 M644.62,205.57c-0.89,0-1.78,0-2.67,0.04c-4.78,0.16-9.51,0.4-14.21,0.77
							c-2.47,0.16-4.94,0.4-7.36,0.6c-0.08,0.04-0.16,0.04-0.24,0.04c-7.52,0.76-15.02,1.82-22.46,3.16l-7.32,1.41
							c-7.3,1.46-14.54,3.23-21.69,5.3c-7.11,1.97-14.13,4.25-21.04,6.84l-6.88,2.63c-5.84,2.25-11.59,4.72-17.24,7.4l-2.83,1.38
							c-6.83,3.3-13.53,6.86-20.08,10.69c-38.99,22.62-72.44,53.64-97.93,90.82c-5.49,8.01-10.58,16.29-15.25,24.81
							c-3.61,6.6-6.98,13.32-10.12,20.15c-3,6.58-5.77,13.26-8.3,20.03l-2.83,8.05c-0.81,2.35-1.54,4.65-2.31,7.04l-2.1,7.08
							l-1.94,7.16c-1.27,4.81-2.39,9.65-3.36,14.53c-4.08,19.9-6.12,40.15-6.11,60.46c0,23.31,2.67,45.97,7.73,67.79l1.5,6.28
							l0.61,2.22c0.44,1.75,0.91,3.49,1.41,5.22l0.36,1.38l1.82,6.03c0.04,0.2,0.12,0.41,0.16,0.57l1.9,5.74
							c0.08,0.36,0.2,0.69,0.32,1.05c0.77,2.31,1.62,4.62,2.43,6.92c0.85,2.31,1.7,4.57,2.63,6.84c0.89,2.31,1.82,4.54,2.75,6.8
							c1.78,4.21,3.64,8.38,5.63,12.46c6.65,13.9,14.36,27.27,23.07,39.98c19.87,28.98,44.62,54.29,73.13,74.83
							c7.98,5.76,16.25,11.1,24.77,16.02c6.57,3.81,13.28,7.37,20.11,10.69c0.97,0.45,1.9,0.93,2.87,1.38
							c1.29,0.65,2.63,1.26,3.93,1.86c4.37,1.98,8.82,3.81,13.27,5.55l6.88,2.63c6.91,2.59,13.93,4.87,21.04,6.84
							c7.12,2.07,14.37,3.84,21.69,5.3l7.32,1.42c7.52,1.36,15.1,2.43,22.7,3.2l7.36,0.6c4.69,0.36,9.42,0.61,14.21,0.77
							c2.95,0.08,5.91,0.12,8.86,0.12c20.32,0.01,40.59-2.04,60.5-6.11c4.86-0.97,9.69-2.09,14.49-3.36
							c4.86-1.25,9.64-2.63,14.32-4.05c3.23-1,6.44-2.07,9.64-3.2c6.38-2.18,12.67-4.61,18.86-7.28c5.29-2.27,10.51-4.69,15.67-7.25
							l7.16-3.68c4.75-2.49,9.42-5.14,14-7.93c4.15-2.5,8.24-5.1,12.26-7.81l8.17-5.67c2.71-1.94,5.38-3.94,8.01-5.99l6.36-5.01
							c31.59-25.61,57.64-57.38,76.57-93.37v-0.04c1.58-2.95,3.07-5.95,4.53-8.95c1.09-2.19,2.13-4.4,3.12-6.63
							c1.05-2.22,2.02-4.45,2.95-6.72v-0.04c0.97-2.24,1.9-4.49,2.8-6.76v-0.04c0.94-2.26,1.81-4.54,2.63-6.84v-0.04
							c0.88-2.29,1.7-4.6,2.47-6.92v-0.04c0.81-2.32,1.58-4.65,2.31-7v-0.04c0.77-2.35,1.46-4.74,2.14-7.08v-0.04
							c0.69-2.39,1.34-4.77,1.94-7.16c0.45-1.62,0.85-3.28,1.26-4.94v-0.04c5.55-23.07,8.35-46.72,8.34-70.46l-0.08-7l-0.33-8.42
							c-0.12-2.55-0.28-5.1-0.48-7.65l-0.57-6.76c-0.07-0.83-0.17-1.65-0.28-2.47l-0.69-5.91l-1.05-7.49
							c-0.44-2.98-0.94-5.95-1.5-8.9c-0.25-1.38-0.52-2.76-0.81-4.13H667.65c3.56,19.02,5.38,38.69,5.38,58.72
							c0,22.22-2.27,43.91-6.55,64.87h149.25l-0.24,0.61c-0.69,1.77-1.42,3.52-2.19,5.26c-0.93,2.1-1.86,4.17-2.87,6.23
							c-0.81,1.7-1.7,3.4-2.55,5.1l-3.61,6.52c-1.1,1.88-2.24,3.74-3.4,5.58c-1.01,1.66-2.07,3.28-3.16,4.86
							c-2.39,3.53-4.9,6.97-7.53,10.32c-0.64,0.88-1.32,1.73-2.03,2.55l-2.75,3.28c-1.41,1.66-2.87,3.28-4.33,4.86
							c-1.29,1.46-2.63,2.83-4.01,4.21c-0.33,0.32-0.65,0.69-0.97,1.01c-1.37,1.38-2.79,2.71-4.21,4.05l-4.65,4.21
							c-0.89,0.81-1.82,1.58-2.75,2.31v0.04c-0.4,0.36-0.81,0.69-1.21,1.01l-2.83,2.31c-0.2,0.12-0.36,0.28-0.57,0.4
							c-2.14,1.7-4.29,3.32-6.51,4.86c-1.09,0.81-2.19,1.54-3.28,2.31c-0.2,0.12-0.41,0.29-0.6,0.36c-2.19,1.5-4.41,2.95-6.68,4.29
							c-3.68,2.27-7.45,4.37-11.34,6.35c-2.53,1.34-5.1,2.58-7.73,3.72c-1.3,0.61-2.63,1.17-3.93,1.74h-0.08l-1.78,0.73
							c-2.04,0.9-4.12,1.71-6.23,2.43l-3.68,1.33c-0.24,0.08-0.53,0.16-0.81,0.24c-1.23,0.44-2.47,0.85-3.72,1.21
							c-1.4,0.44-2.8,0.86-4.21,1.25c-1.39,0.44-2.79,0.82-4.21,1.14c-1.41,0.4-2.83,0.77-4.25,1.05l-4.33,0.93
							c-0.97,0.24-1.96,0.43-2.95,0.57c-1.49,0.33-2.98,0.6-4.49,0.81c-2.02,0.33-4.09,0.61-6.11,0.85
							c-1.33,0.21-2.67,0.36-4.01,0.45c-4.45,0.53-8.98,0.81-13.56,0.89c-0.77,0.04-1.54,0.04-2.31,0.04
							c-0.77,0.04-1.54,0.04-2.31,0.04c-1.5,0-3,0-4.49-0.08h-0.04c-5.97-0.15-11.93-0.61-17.85-1.38c-2.3-0.28-4.6-0.62-6.88-1.01
							l-2.22-0.36c-1.38-0.24-2.79-0.48-4.17-0.8c-2.87-0.6-5.73-1.26-8.58-1.98c-1.41-0.33-2.83-0.73-4.21-1.14
							c-1.26-0.33-2.52-0.69-3.76-1.09v-0.04c15.66-22.85,28.04-47.77,36.79-74.06c0.43-1.25,0.83-2.52,1.17-3.8l1.17-3.76
							l1.29-4.28c0.81-2.83,1.58-5.7,2.31-8.58l1.26-4.94c5.45-22.88,8.21-46.33,8.22-69.85c0-19.71-1.92-39.38-5.75-58.72
							c-0.16-0.69-0.28-1.42-0.45-2.1c-1.06-5.17-2.26-10.32-3.61-15.42c-0.12-0.4-0.24-0.77-0.32-1.17
							c-1.29-4.85-2.71-9.67-4.25-14.45c-0.04-0.12-0.08-0.28-0.12-0.45l-2.67-7.89l-0.73-2.02c-0.68-1.99-1.43-3.96-2.23-5.91
							c-0.65-1.74-1.33-3.49-2.06-5.18c-0.77-1.94-1.58-3.87-2.43-5.79l-2.47-5.55c-5.1-11.27-10.91-22.21-17.4-32.74
							c-0.68-1.13-1.38-2.25-2.1-3.36c-1.78-2.84-3.61-5.65-5.5-8.42l-0.12-0.16c1.26-0.4,2.55-0.77,3.8-1.14
							c3.07-0.86,6.16-1.65,9.27-2.35c1.64-0.39,3.28-0.74,4.94-1.05c1.62-0.32,3.28-0.6,4.94-0.89l4.37-0.69l4.25-0.53
							c4.76-0.57,9.54-0.93,14.33-1.09l3.97-0.08c0.8-0.04,1.57-0.04,2.39-0.04c2.63,0,5.22,0.04,7.81,0.2c0.45,0,0.89,0,1.29,0.04
							l4.53,0.28c1.94,0.12,3.93,0.33,5.87,0.57c1.37,0.12,2.73,0.28,4.08,0.48l4.61,0.65l4.49,0.77l4.65,0.97
							c1.42,0.28,2.84,0.61,4.25,0.97c8.96,2.13,17.73,4.98,26.22,8.54c1.41,0.55,2.8,1.15,4.17,1.78c1.38,0.59,2.74,1.22,4.08,1.9
							c1.38,0.6,2.73,1.26,4.05,1.98c9.34,4.7,18.23,10.26,26.55,16.59c1.22,0.85,2.34,1.78,3.52,2.76
							c1.23,0.94,2.43,1.91,3.61,2.91c2.23,1.87,4.42,3.8,6.55,5.79c3.28,2.99,6.48,6.19,9.51,9.47H926
							c-3.07-7.16-6.46-14.18-10.16-21.04c-1.77-3.3-3.6-6.57-5.5-9.79c-1.86-3.24-3.8-6.44-5.82-9.59
							c-1.99-3.15-4.05-6.25-6.19-9.31v-0.05c-2.1-3.07-4.27-6.09-6.51-9.06c-1.09-1.5-2.23-3-3.4-4.49
							c-4.54-5.89-9.32-11.58-14.32-17.08V305c-4.34-4.84-8.85-9.52-13.52-14.05l-5.3-5.06c-10.72-10.02-22.17-19.22-34.27-27.52
							l-6.11-4.08h-0.04c-1.54-1.05-3.1-2.06-4.69-3.03c-3.16-1.98-6.39-3.88-9.64-5.79c-3.24-1.87-6.52-3.68-9.83-5.42
							c-4.61-2.46-9.3-4.78-14.05-6.95h-0.04c-4.76-2.21-9.58-4.29-14.45-6.23c-1.9-0.8-3.82-1.55-5.75-2.27
							c-0.5-0.21-1.02-0.4-1.54-0.57c-0.28-0.11-0.56-0.2-0.85-0.28c-1.66-0.65-3.32-1.21-5.02-1.82c-2.96-1.03-5.94-2-8.95-2.91
							l-7.08-2.1c-5.02-1.46-10.08-2.75-15.18-3.88l-6.51-1.42l-7.32-1.41c-2.47-0.45-4.96-0.86-7.44-1.22
							c-2.49-0.39-4.99-0.74-7.49-1.05l-8.66-0.97c-2.14-0.24-4.29-0.4-6.48-0.57c-2.24-0.19-4.48-0.34-6.72-0.45l-4.57-0.2
							c-1.78-0.08-3.61-0.12-5.38-0.16l-6.39-0.08C648.75,205.49,646.69,205.53,644.62,205.57"/>
					</defs>
					<clipPath id="SVGID_00000034789910698413274110000000617510707349343368_">
						<use xlink:href="#SVGID_00000021111830984844466420000010167132163595267983_"  style="overflow:visible;"/>
					</clipPath>
					
						<linearGradient id="SVGID_00000029746881719313515690000007711457182191652532_" gradientUnits="userSpaceOnUse" x1="350.3309" y1="496.0321" x2="951.2955" y2="496.0321" gradientTransform="matrix(1 0 0 -1 0 1002)">
						<stop  offset="0" style="stop-color:#F89521"/>
						<stop  offset="0" style="stop-color:#F89521"/>
						<stop  offset="1" style="stop-color:#ED1D69"/>
					</linearGradient>
					
						<path style="clip-path:url(#SVGID_00000034789910698413274110000000617510707349343368_);fill:url(#SVGID_00000029746881719313515690000007711457182191652532_);" d="
						M350.33,205.49H951.3v600.96H350.33V205.49z"/>
				</g>
				<g>
					<defs>
						<path id="SVGID_00000028314806353952077530000012290887734157068734_" d="M350.29,205.49l-6.39,0.08l-5.59,0.16l-4.77,0.24
							l-6.31,0.4l-5.95,0.48l-9.19,1.05l-7.48,1.05l-6.11,1.02l-9.19,1.74l-6.8,1.46l-7.24,1.78L261,219l-8.7,2.83l-5.26,1.9
							l-0.81,0.28l-1.5,0.57l-4.53,1.78l-7.04,2.87l-19.54,9.1l-6.48,3.44c-8.52,4.57-16.79,9.6-24.77,15.05
							c-36.08,24.33-66.46,56.2-89.03,93.4c-2.53,4.13-4.95,8.33-7.25,12.59l-3.39,6.44l-3.24,6.55c-0.97,1.98-1.9,4.01-2.83,6.03
							c-1.18,2.56-2.31,5.14-3.4,7.73c-1.62,3.89-3.15,7.77-4.61,11.7c-1.67,4.37-3.2,8.8-4.57,13.27
							c-0.53,1.54-1.01,3.07-1.46,4.61c-1.13,3.64-2.14,7.37-3.12,11.09l-1.09,4.25c-0.12,0.6-0.28,1.17-0.4,1.78
							c-0.86,3.62-1.65,7.25-2.39,10.89l-2.02,11.49c-0.24,1.42-0.44,2.79-0.65,4.21c-0.16,0.97-0.33,1.94-0.4,2.95l-0.57,4.45
							c-1.18,9.85-1.87,19.75-2.06,29.67l-0.04,6.03c0.01,6.11,0.19,12.23,0.57,18.33c-0.04,0.33,0,0.61,0.04,0.93
							c0.36,5.99,0.93,11.98,1.66,17.89l1.17,8.54c0.04,0.4,0.12,0.81,0.2,1.17l1.42,8.3c0,0.08,0,0.2,0.04,0.28l1.78,8.7l2.06,8.78
							c0.73,2.95,1.5,5.82,2.31,8.74c1.74,6.28,3.72,12.43,5.91,18.49c0.53,1.62,1.09,3.2,1.7,4.77l1.98,5.14l2.75,6.76
							c1.89,4.51,3.92,8.96,6.07,13.36c1.01,2.19,2.1,4.33,3.2,6.48l3.39,6.43l3.56,6.35c19.22,33.54,44.75,63.03,75.19,86.85
							c3.44,2.79,6.92,5.38,10.45,7.93c1.27,0.91,2.59,1.73,3.87,2.62l5.01,3.39c3.22,2.15,6.48,4.23,9.79,6.25l5.69,3.41l6.14,3.5
							c3.41,1.88,6.87,3.69,10.36,5.44l4.71,2.28c4.14,1.98,8.3,3.91,12.54,5.71c4.49,1.94,9.03,3.72,13.64,5.38l6.96,2.43
							c2,0.72,4.03,1.38,6.07,1.98c5.18,1.66,10.4,3.12,15.66,4.49c4.65,1.21,9.31,2.27,14.05,3.24c2.75,0.57,5.46,1.1,8.21,1.54
							c2.19,0.41,4.39,0.77,6.6,1.09c2.47,0.4,4.98,0.73,7.48,1.05c2.07,0.29,4.15,0.53,6.24,0.73c2.95,0.33,5.91,0.6,8.9,0.81
							c2.53,0.2,5.07,0.37,7.61,0.49l4.82,0.2c1.5,0.08,3.03,0.12,4.57,0.12l6.07,0.08h0.12c2.71,0,5.43-0.04,8.13-0.12
							c2.39-0.05,4.78-0.14,7.17-0.28c2.55-0.12,5.1-0.29,7.65-0.49c1.9-0.12,3.76-0.28,5.63-0.48c3.17-0.29,6.34-0.64,9.51-1.05
							l7.49-1.05l5.71-0.93c1.37-0.2,2.73-0.45,4.09-0.73c0.65-0.12,1.33-0.24,1.98-0.4c1.54-0.24,3.08-0.57,4.62-0.94
							c1.82-0.33,3.63-0.72,5.42-1.17c0.16-0.04,0.36-0.08,0.57-0.16c1.95-0.4,3.89-0.89,5.83-1.38l2.71-0.73l4.57-1.26
							c3.24-0.89,6.47-1.85,9.67-2.87c1.82-0.57,3.62-1.16,5.42-1.78c2.31-0.77,4.62-1.62,6.92-2.43l6.88-2.63l6.76-2.75l6.72-2.95
							c1.25-0.53,2.47-1.14,3.72-1.7l-3.89-2.54c-37.59-24.75-69.62-57.06-94.05-94.86c-0.77,0.13-1.53,0.23-2.31,0.32
							c-7.21,1.14-14.48,1.79-21.77,1.95c-0.61,0.04-1.17,0.04-1.78,0.04c-1.09,0.08-2.14,0.08-3.24,0.08c-0.77,0-1.54,0-2.31-0.04
							c-0.77,0-1.5,0-2.27-0.04h-0.29c-4.49-0.11-8.97-0.41-13.44-0.89c-1.17-0.08-2.31-0.24-3.44-0.36
							c-1.95-0.21-3.9-0.48-5.83-0.81c-2.24-0.33-4.46-0.73-6.68-1.17c-1.98-0.36-3.97-0.81-5.95-1.25
							c-0.24-0.04-0.45-0.13-0.65-0.16c-2.07-0.49-4.13-1.02-6.19-1.58l-0.48-0.12c-1.79-0.49-3.57-1.01-5.34-1.58
							c-0.36-0.08-0.69-0.21-1.01-0.33c-2.08-0.64-4.15-1.34-6.19-2.1c-2.08-0.73-4.15-1.52-6.19-2.35
							c-2.04-0.81-4.07-1.68-6.07-2.59c-2.21-0.95-4.38-1.98-6.51-3.08c-4.3-2.1-8.5-4.4-12.59-6.88c-1.36-0.81-2.71-1.65-4.05-2.51
							c-0.08,0-0.12-0.08-0.2-0.12l-5.23-3.52c-3.61-2.43-7.09-5.04-10.44-7.81c-0.86-0.65-1.69-1.32-2.51-2.02
							c-22.66-19.06-40.23-43.45-51.11-70.98h149.05c-4.36-21.35-6.56-43.08-6.55-64.87c0-20.03,1.82-39.7,5.38-58.72H183.36
							l1.33-3.8c0.49-1.3,1.01-2.6,1.54-3.88l1.58-3.76c0.53-1.26,1.09-2.51,1.66-3.76l0.97-1.98c0.93-1.98,1.9-3.93,2.88-5.87
							c1.46-2.79,2.99-5.55,4.57-8.26c2.31-3.94,4.79-7.77,7.44-11.49c1.29-1.9,2.67-3.72,4.05-5.54c1.58-2.1,3.2-4.13,4.86-6.11
							c2.23-2.65,4.53-5.24,6.88-7.77l3.36-3.52c1.29-1.33,2.63-2.63,3.96-3.88c0.24-0.24,0.49-0.48,0.73-0.69
							c1.7-1.62,3.4-3.2,5.18-4.69c0.44-0.4,0.89-0.77,1.33-1.13c2.66-2.26,5.39-4.45,8.17-6.56c1.3-1.01,2.63-1.99,3.97-2.95
							l3.52-2.43c2.55-1.74,5.18-3.44,7.85-5.06c3.74-2.28,7.57-4.41,11.49-6.36c2.87-1.46,5.79-2.83,8.74-4.13
							c0.16-0.04,0.28-0.12,0.45-0.16c2.91-1.3,5.87-2.5,8.86-3.6l6.48-2.27c3.01-1.02,6.06-1.94,9.14-2.75
							c3.09-0.85,6.21-1.59,9.35-2.22c2.1-0.45,4.25-0.85,6.36-1.21c3.42-0.61,6.86-1.09,10.32-1.46c1.74-0.2,3.48-0.36,5.22-0.49
							c0.36-0.08,0.73-0.12,1.09-0.12c2.21-0.16,4.42-0.28,6.64-0.36c3.13-0.15,6.26-0.19,9.39-0.13c1.33,0,2.67,0.04,3.96,0.08
							l2.75,0.13c0.4,0,0.77,0.04,1.17,0.04l1.7,0.13l1.66,0.12c1.5,0.1,3,0.23,4.49,0.41c1.05,0.08,2.1,0.2,3.2,0.36
							c1.09,0.08,2.19,0.24,3.27,0.4l3.68,0.53c0.33,0.08,0.69,0.12,1.01,0.16c25.27-39.1,58.66-72.31,97.9-97.37
							c-1.09-0.56-2.22-1.09-3.36-1.58c-0.17-0.11-0.36-0.19-0.57-0.24c-2.01-0.96-4.05-1.87-6.11-2.71
							c-0.28-0.12-0.57-0.24-0.89-0.36c-2.07-0.89-4.13-1.74-6.23-2.54c-2.28-0.92-4.57-1.8-6.88-2.63
							c-4.61-1.71-9.26-3.29-13.96-4.74c-6.87-2.16-13.82-4.05-20.84-5.67c-0.28-0.08-0.57-0.12-0.8-0.2l-7.12-1.54
							c-2.11-0.45-4.23-0.85-6.36-1.21c-0.6-0.12-1.17-0.24-1.74-0.33c-2.22-0.4-4.45-0.77-6.68-1.09
							c-2.49-0.39-4.99-0.74-7.49-1.05c-2.05-0.28-4.1-0.53-6.15-0.73c-1.26-0.16-2.53-0.28-3.81-0.36
							c-1.62-0.16-3.24-0.33-4.86-0.4c-4.89-0.4-9.83-0.69-14.86-0.81l-8.38-0.13L350.29,205.49L350.29,205.49z"/>
					</defs>
					<clipPath id="SVGID_00000103263599506079026780000002316024549327575689_">
						<use xlink:href="#SVGID_00000028314806353952077530000012290887734157068734_"  style="overflow:visible;"/>
					</clipPath>
					
						<linearGradient id="SVGID_00000142146608371688097220000011363780002430526109_" gradientUnits="userSpaceOnUse" x1="49.8486" y1="496.0321" x2="477.5679" y2="496.0321" gradientTransform="matrix(1 0 0 -1 0 1002)">
						<stop  offset="0" style="stop-color:#F89521"/>
						<stop  offset="0" style="stop-color:#F89521"/>
						<stop  offset="1" style="stop-color:#ED1D69"/>
					</linearGradient>
					
						<path style="clip-path:url(#SVGID_00000103263599506079026780000002316024549327575689_);fill:url(#SVGID_00000142146608371688097220000011363780002430526109_);" d="
						M49.85,205.49h427.72v600.96H49.85V205.49z"/>
				</g>
			</g>
		</g>
	</g>
</g>
</svg>
