<?xml version="1.0" encoding="utf-8"?>
<!-- Generator: Adobe Illustrator 28.0.0, SVG Export Plug-In . SVG Version: 6.00 Build 0)  -->
<svg version="1.1" id="Layer_1" xmlns="http://www.w3.org/2000/svg" xmlns:xlink="http://www.w3.org/1999/xlink" x="0px" y="0px"
	 viewBox="0 0 521 135" style="enable-background:new 0 0 521 135;" xml:space="preserve">
<style type="text/css">
	.st0{clip-path:url(#SVGID_00000048478417862580689470000006164046907108691898_);}
	.st1{clip-path:url(#SVGID_00000165914147424834966060000005973234051962411173_);}
	
		.st2{clip-path:url(#SVGID_00000145740514184723916570000004020898421206256293_);fill:url(#SVGID_00000097497163564734833260000000590555803714810019_);}
	
		.st3{clip-path:url(#SVGID_00000060027833864874682530000003075261103394612401_);fill:url(#SVGID_00000157268276003992801690000003691744718508778167_);}
	.st4{clip-path:url(#SVGID_00000010989327850794214770000013762380254666200966_);}
	.st5{clip-path:url(#SVGID_00000135677881645232943630000015679487851663843235_);}
	
		.st6{clip-path:url(#SVGID_00000127739006024462211800000000764014785351241643_);fill:url(#SVGID_00000118355842733738189260000002176984190836522644_);}
	
		.st7{clip-path:url(#SVGID_00000002351609444724864980000018229685250622377908_);fill:url(#SVGID_00000093144589455190699030000000669935850194722740_);}
	
		.st8{clip-path:url(#SVGID_00000108307268186917212090000002521372895899736452_);fill:url(#SVGID_00000181779130660736004560000012060927172790540472_);}
	
		.st9{clip-path:url(#SVGID_00000176766199422072881410000017846512033390793634_);fill:url(#SVGID_00000083063508483649725670000017335927658495117215_);}
	
		.st10{clip-path:url(#SVGID_00000003099453957461839400000010471749338712462767_);fill:url(#SVGID_00000061454809029876125460000017784239201909460119_);}
	
		.st11{clip-path:url(#SVGID_00000158019903146153810750000005229170669370703787_);fill:url(#SVGID_00000084516875710842674510000001897638083745181346_);}
	
		.st12{clip-path:url(#SVGID_00000078018892164158290170000003696233157568117139_);fill:url(#SVGID_00000057871046468704260410000016717673710646900159_);}
	
		.st13{clip-path:url(#SVGID_00000121992823957857344480000009284147503686029227_);fill:url(#SVGID_00000094576847456366289180000000118441647669973678_);}
</style>
<g>
	<defs>
		<rect id="SVGID_1_" y="1.5" width="183.2" height="131.9"/>
	</defs>
	<clipPath id="SVGID_00000023967990259824624020000011338094272010728362_">
		<use xlink:href="#SVGID_1_"  style="overflow:visible;"/>
	</clipPath>
	<g style="clip-path:url(#SVGID_00000023967990259824624020000011338094272010728362_);">
		<g>
			<defs>
				<rect id="SVGID_00000070088005253119905210000014838320104153855903_" x="-109.5" y="-44.9" width="392" height="277.2"/>
			</defs>
			<clipPath id="SVGID_00000176734240855513370690000017363193009581049254_">
				<use xlink:href="#SVGID_00000070088005253119905210000014838320104153855903_"  style="overflow:visible;"/>
			</clipPath>
			<g style="clip-path:url(#SVGID_00000176734240855513370690000017363193009581049254_);">
				<g>
					<defs>
						<path id="SVGID_00000088114991213829397070000001318463760755006861_" d="M94.5,42.6c0,0-0.1,0.1-0.1,0.1l-0.9,0.8l-0.1,0.1
							l-1,0.9l-0.8,0.8l-0.3,0.3l-0.7,0.7L90,46.7l-0.6,0.6l-0.9,1.2L88,49.1l-0.5,0.6l-0.4,0.6L86.7,51c0,0-0.1,0.1-0.1,0.1
							c0,0-0.1,0.1-0.1,0.1c0,0,0,0,0,0c0.9,1.5,1.8,3.1,2.4,4.7v0l2.1,18l0,0.1l2.2,19.4v0c-2.6,2.2-4.9,4.8-6.7,7.7
							c-1.8-2.9-4.1-5.5-6.7-7.7h0v0L82,74.1l2.1-18v0l0-0.1l0.3-0.7c0.1-0.2,0.2-0.5,0.3-0.7c0.1-0.2,0.2-0.5,0.3-0.7
							c0.3-0.5,0.5-1,0.8-1.5l0.3-0.5l0.2-0.4c0,0,0,0,0,0c-2.1-3.4-4.8-6.3-8-8.7c2.6,0.4,5.3,0.6,7.9,0.6
							C89.2,43.2,91.9,43,94.5,42.6 M113,13.4c-0.2,0-0.3,0-0.5,0c-0.9,0-1.7,0.1-2.6,0.1c-0.5,0-0.9,0.1-1.4,0.1c0,0,0,0,0,0
							c-1.4,0.1-2.8,0.3-4.1,0.6l-1.3,0.3c-1.3,0.3-2.7,0.6-4,1c-1.3,0.4-2.6,0.8-3.9,1.3l-1.3,0.5c-1.1,0.4-2.1,0.9-3.2,1.4
							l-0.5,0.3c-1.3,0.6-2.5,1.3-3.7,2c-7.2,4.2-13.3,9.9-18,16.7c-1,1.5-1.9,3-2.8,4.6c-0.7,1.2-1.3,2.4-1.9,3.7
							c-0.6,1.2-1.1,2.4-1.5,3.7l-0.5,1.5c-0.1,0.4-0.3,0.9-0.4,1.3L61,53.5l-0.4,1.3c-0.2,0.9-0.4,1.8-0.6,2.7
							c-0.7,3.7-1.1,7.4-1.1,11.1c0,4.3,0.5,8.5,1.4,12.5l0.3,1.2l0.1,0.4c0.1,0.3,0.2,0.6,0.3,1l0.1,0.3l0.3,1.1c0,0,0,0.1,0,0.1
							l0.3,1.1c0,0.1,0,0.1,0.1,0.2c0.1,0.4,0.3,0.8,0.4,1.3c0.2,0.4,0.3,0.8,0.5,1.3c0.2,0.4,0.3,0.8,0.5,1.3
							c0.3,0.8,0.7,1.5,1,2.3c1.2,2.6,2.6,5,4.2,7.4c3.7,5.3,8.2,10,13.4,13.8c1.5,1.1,3,2,4.6,2.9c1.2,0.7,2.4,1.4,3.7,2
							c0.2,0.1,0.3,0.2,0.5,0.3c0.2,0.1,0.5,0.2,0.7,0.3c0.8,0.4,1.6,0.7,2.4,1l1.3,0.5c1.3,0.5,2.6,0.9,3.9,1.3
							c1.3,0.4,2.6,0.7,4,1l1.3,0.3c1.4,0.3,2.8,0.4,4.2,0.6l1.4,0.1c0.9,0.1,1.7,0.1,2.6,0.1c0.5,0,1.1,0,1.6,0
							c3.7,0,7.5-0.4,11.1-1.1c0.9-0.2,1.8-0.4,2.7-0.6c0.9-0.2,1.8-0.5,2.6-0.7c0.6-0.2,1.2-0.4,1.8-0.6c1.2-0.4,2.3-0.8,3.5-1.3
							c1-0.4,1.9-0.9,2.9-1.3l1.3-0.7c0.9-0.5,1.7-0.9,2.6-1.5c0.8-0.5,1.5-0.9,2.3-1.4l1.5-1c0.5-0.4,1-0.7,1.5-1.1l1.2-0.9
							c5.8-4.7,10.6-10.6,14.1-17.2v0c0.3-0.5,0.6-1.1,0.8-1.6c0.2-0.4,0.4-0.8,0.6-1.2c0.2-0.4,0.4-0.8,0.5-1.2v0
							c0.2-0.4,0.4-0.8,0.5-1.2v0c0.2-0.4,0.3-0.8,0.5-1.3v0c0.2-0.4,0.3-0.8,0.5-1.3v0c0.1-0.4,0.3-0.9,0.4-1.3v0
							c0.1-0.4,0.3-0.9,0.4-1.3v0c0.1-0.4,0.2-0.9,0.4-1.3c0.1-0.3,0.2-0.6,0.2-0.9v0c1-4.2,1.5-8.6,1.5-13l0-1.3l-0.1-1.5
							c0-0.5-0.1-0.9-0.1-1.4l-0.1-1.2c0-0.2,0-0.3-0.1-0.5l-0.1-1.1l-0.2-1.4c-0.1-0.5-0.2-1.1-0.3-1.6c0-0.3-0.1-0.5-0.1-0.8
							h-51.1c0.7,3.5,1,7.1,1,10.8c0,4.1-0.4,8.1-1.2,11.9h27.4l0,0.1c-0.1,0.3-0.3,0.6-0.4,1c-0.2,0.4-0.3,0.8-0.5,1.1
							c-0.1,0.3-0.3,0.6-0.5,0.9l-0.7,1.2c-0.2,0.3-0.4,0.7-0.6,1c-0.2,0.3-0.4,0.6-0.6,0.9c-0.4,0.6-0.9,1.3-1.4,1.9
							c-0.1,0.2-0.2,0.3-0.4,0.5l-0.5,0.6c-0.3,0.3-0.5,0.6-0.8,0.9c-0.2,0.3-0.5,0.5-0.7,0.8c-0.1,0.1-0.1,0.1-0.2,0.2
							c-0.3,0.3-0.5,0.5-0.8,0.7l-0.9,0.8c-0.2,0.1-0.3,0.3-0.5,0.4v0c-0.1,0.1-0.1,0.1-0.2,0.2l-0.5,0.4c0,0-0.1,0.1-0.1,0.1
							c-0.4,0.3-0.8,0.6-1.2,0.9c-0.2,0.1-0.4,0.3-0.6,0.4c0,0-0.1,0.1-0.1,0.1c-0.4,0.3-0.8,0.5-1.2,0.8c-0.7,0.4-1.4,0.8-2.1,1.2
							c-0.5,0.2-0.9,0.5-1.4,0.7c-0.2,0.1-0.5,0.2-0.7,0.3h0l-0.3,0.1c-0.4,0.2-0.8,0.3-1.1,0.4l-0.7,0.2c0,0-0.1,0-0.1,0
							c-0.2,0.1-0.5,0.2-0.7,0.2c-0.3,0.1-0.5,0.2-0.8,0.2c-0.3,0.1-0.5,0.2-0.8,0.2c-0.3,0.1-0.5,0.1-0.8,0.2l-0.8,0.2
							c-0.2,0-0.4,0.1-0.5,0.1c-0.3,0.1-0.5,0.1-0.8,0.1c-0.4,0.1-0.8,0.1-1.1,0.2c-0.2,0-0.5,0.1-0.7,0.1c-0.8,0.1-1.7,0.1-2.5,0.2
							c-0.1,0-0.3,0-0.4,0c-0.1,0-0.3,0-0.4,0c-0.3,0-0.6,0-0.8,0h0c-1.1,0-2.2-0.1-3.3-0.3c-0.4-0.1-0.8-0.1-1.3-0.2l-0.4-0.1
							c-0.3,0-0.5-0.1-0.8-0.1c-0.5-0.1-1.1-0.2-1.6-0.4c-0.3-0.1-0.5-0.1-0.8-0.2c-0.2-0.1-0.5-0.1-0.7-0.2v0
							c2.9-4.2,5.2-8.8,6.8-13.6c0.1-0.2,0.2-0.5,0.2-0.7l0.2-0.7l0.2-0.8c0.1-0.5,0.3-1,0.4-1.6l0.2-0.9c1-4.2,1.5-8.5,1.5-12.8
							c0-3.6-0.4-7.2-1.1-10.8c0-0.1-0.1-0.3-0.1-0.4c-0.2-1-0.4-1.9-0.7-2.8c0-0.1,0-0.1-0.1-0.2c-0.2-0.9-0.5-1.8-0.8-2.7
							c0,0,0-0.1,0-0.1l-0.5-1.5l-0.1-0.4c-0.1-0.4-0.3-0.7-0.4-1.1c-0.1-0.3-0.2-0.6-0.4-1c-0.1-0.4-0.3-0.7-0.4-1.1l-0.5-1
							c-0.9-2.1-2-4.1-3.2-6c-0.1-0.2-0.3-0.4-0.4-0.6c-0.3-0.5-0.7-1-1-1.5l0,0c0.2-0.1,0.5-0.1,0.7-0.2c0.6-0.2,1.1-0.3,1.7-0.4
							c0.3-0.1,0.6-0.1,0.9-0.2c0.3-0.1,0.6-0.1,0.9-0.2l0.8-0.1l0.8-0.1c0.9-0.1,1.8-0.2,2.6-0.2l0.7,0c0.1,0,0.3,0,0.4,0
							c0.5,0,1,0,1.4,0c0.1,0,0.2,0,0.2,0l0.8,0.1c0.4,0,0.7,0.1,1.1,0.1c0.3,0,0.5,0.1,0.8,0.1l0.8,0.1l0.8,0.1l0.9,0.2
							c0.3,0.1,0.5,0.1,0.8,0.2c1.6,0.4,3.3,0.9,4.8,1.6c0.3,0.1,0.5,0.2,0.8,0.3c0.3,0.1,0.5,0.2,0.8,0.3c0.3,0.1,0.5,0.2,0.7,0.4
							c1.7,0.9,3.4,1.9,4.9,3.1c0.2,0.2,0.4,0.3,0.6,0.5c0.2,0.2,0.4,0.4,0.7,0.5c0.4,0.3,0.8,0.7,1.2,1.1c0.6,0.5,1.2,1.1,1.7,1.7
							h26.7c-0.6-1.3-1.2-2.6-1.9-3.9c-0.3-0.6-0.7-1.2-1-1.8c-0.3-0.6-0.7-1.2-1.1-1.8c-0.4-0.6-0.7-1.2-1.1-1.7v0
							c-0.4-0.6-0.8-1.1-1.2-1.7c-0.2-0.3-0.4-0.6-0.6-0.8c-0.8-1.1-1.7-2.1-2.6-3.1v0c-0.8-0.9-1.6-1.8-2.5-2.6l-1-0.9
							c-2-1.8-4.1-3.5-6.3-5.1l-1.1-0.8h0c-0.3-0.2-0.6-0.4-0.9-0.6c-0.6-0.4-1.2-0.7-1.8-1.1c-0.6-0.3-1.2-0.7-1.8-1
							c-0.8-0.5-1.7-0.9-2.6-1.3h0c-0.9-0.4-1.8-0.8-2.7-1.1c-0.3-0.1-0.7-0.3-1.1-0.4c-0.1,0-0.2-0.1-0.3-0.1c-0.1,0-0.1,0-0.2-0.1
							c-0.3-0.1-0.6-0.2-0.9-0.3c-0.5-0.2-1.1-0.4-1.6-0.5l-1.3-0.4c-0.9-0.3-1.9-0.5-2.8-0.7l-1.2-0.3l-1.3-0.3
							c-0.5-0.1-0.9-0.2-1.4-0.2c-0.5-0.1-0.9-0.1-1.4-0.2l-1.6-0.2c-0.4,0-0.8-0.1-1.2-0.1c-0.4,0-0.8-0.1-1.2-0.1l-0.8,0
							c-0.3,0-0.7,0-1,0l-1.2,0C113.8,13.3,113.4,13.3,113,13.4"/>
					</defs>
					<clipPath id="SVGID_00000038397129871712810940000011493179226523162261_">
						<use xlink:href="#SVGID_00000088114991213829397070000001318463760755006861_"  style="overflow:visible;"/>
					</clipPath>
					
						<linearGradient id="SVGID_00000115492409586783443580000004846390597179741343_" gradientUnits="userSpaceOnUse" x1="58.88" y1="67.403" x2="169.398" y2="67.403" gradientTransform="matrix(1 0 0 -1 0 136)">
						<stop  offset="0" style="stop-color:#F7941D"/>
						<stop  offset="0" style="stop-color:#F7941D"/>
						<stop  offset="1" style="stop-color:#ED1968"/>
					</linearGradient>
					
						<path style="clip-path:url(#SVGID_00000038397129871712810940000011493179226523162261_);fill:url(#SVGID_00000115492409586783443580000004846390597179741343_);" d="
						M58.9,13.3h110.5v110.5H58.9V13.3z"/>
				</g>
				<g>
					<defs>
						<path id="SVGID_00000169517681744677839270000016670664894624026272_" d="M58.9,13.3l-1.2,0l-1,0l-0.9,0l-1.2,0.1l-1.1,0.1
							l-1.7,0.2L50.5,14l-1.1,0.2l-1.7,0.3l-1.3,0.3l-1.3,0.3l-2.6,0.7l-1.6,0.5l-1,0.4l-0.1,0.1l-0.3,0.1l-0.8,0.3l-1.3,0.5
							l-3.6,1.7L32.5,20c-1.6,0.8-3.1,1.8-4.6,2.8C21.4,27.3,15.8,33.1,11.6,40c-0.5,0.8-0.9,1.5-1.3,2.3l-0.6,1.2l-0.6,1.2
							c-0.2,0.4-0.4,0.7-0.5,1.1c-0.2,0.5-0.4,0.9-0.6,1.4c-0.3,0.7-0.6,1.4-0.8,2.2c-0.3,0.8-0.6,1.6-0.8,2.4
							C6.1,52.1,6,52.3,6,52.6c-0.2,0.7-0.4,1.4-0.6,2l-0.2,0.8c0,0.1-0.1,0.2-0.1,0.3c-0.2,0.7-0.3,1.3-0.4,2l-0.4,2.1
							c0,0.3-0.1,0.5-0.1,0.8c0,0.2-0.1,0.4-0.1,0.5L4,62c-0.2,1.8-0.3,3.6-0.4,5.5l0,1.1c0,1.1,0,2.2,0.1,3.4c0,0.1,0,0.1,0,0.2
							c0.1,1.1,0.2,2.2,0.3,3.3L4.3,77c0,0.1,0,0.1,0,0.2l0.3,1.5c0,0,0,0,0,0.1l0.3,1.6L5.3,82c0.1,0.5,0.3,1.1,0.4,1.6
							C6,84.8,6.4,85.9,6.8,87c0.1,0.3,0.2,0.6,0.3,0.9l0.4,0.9L8,90.1c0.3,0.8,0.7,1.6,1.1,2.5c0.2,0.4,0.4,0.8,0.6,1.2l0.6,1.2
							l0.7,1.2c3.5,6.2,8.2,11.6,13.8,16c0.6,0.5,1.3,1,1.9,1.5c0.2,0.2,0.5,0.3,0.7,0.5l0.9,0.6c0.6,0.4,1.2,0.8,1.8,1.2l1,0.6
							l1.1,0.6c0.6,0.3,1.3,0.7,1.9,1l0.9,0.4c0.8,0.4,1.5,0.7,2.3,1.1c0.8,0.4,1.7,0.7,2.5,1l1.3,0.4c0.4,0.1,0.7,0.3,1.1,0.4
							c1,0.3,1.9,0.6,2.9,0.8c0.9,0.2,1.7,0.4,2.6,0.6c0.5,0.1,1,0.2,1.5,0.3c0.4,0.1,0.8,0.1,1.2,0.2c0.5,0.1,0.9,0.1,1.4,0.2
							c0.4,0.1,0.8,0.1,1.1,0.1c0.5,0.1,1.1,0.1,1.6,0.1c0.5,0,0.9,0.1,1.4,0.1l0.9,0c0.3,0,0.6,0,0.8,0l1.1,0h0c0.5,0,1,0,1.5,0
							c0.4,0,0.9,0,1.3-0.1c0.5,0,0.9-0.1,1.4-0.1c0.3,0,0.7-0.1,1-0.1c0.6-0.1,1.2-0.1,1.7-0.2l1.4-0.2l1.1-0.2
							c0.3,0,0.5-0.1,0.8-0.1c0.1,0,0.2,0,0.4-0.1c0.3,0,0.6-0.1,0.8-0.2c0.3-0.1,0.7-0.1,1-0.2c0,0,0.1,0,0.1,0
							c0.4-0.1,0.7-0.2,1.1-0.3L73,122l0.8-0.2c0.6-0.2,1.2-0.3,1.8-0.5c0.3-0.1,0.7-0.2,1-0.3c0.4-0.1,0.8-0.3,1.3-0.4l1.3-0.5
							l1.2-0.5l1.2-0.5c0.2-0.1,0.5-0.2,0.7-0.3l-0.7-0.5c-6.9-4.6-12.8-10.5-17.3-17.4c-0.1,0-0.3,0-0.4,0.1
							c-1.3,0.2-2.7,0.3-4,0.4c-0.1,0-0.2,0-0.3,0c-0.2,0-0.4,0-0.6,0c-0.1,0-0.3,0-0.4,0c-0.1,0-0.3,0-0.4,0H58
							c-0.8,0-1.6-0.1-2.5-0.2c-0.2,0-0.4,0-0.6-0.1c-0.4,0-0.7-0.1-1.1-0.1c-0.4-0.1-0.8-0.1-1.2-0.2c-0.4-0.1-0.7-0.1-1.1-0.2
							c0,0-0.1,0-0.1,0c-0.4-0.1-0.8-0.2-1.1-0.3l-0.1,0c-0.3-0.1-0.7-0.2-1-0.3c-0.1,0-0.1,0-0.2-0.1c-0.4-0.1-0.8-0.2-1.1-0.4
							c-0.4-0.1-0.8-0.3-1.1-0.4c-0.4-0.1-0.7-0.3-1.1-0.5c-0.4-0.2-0.8-0.4-1.2-0.6c-0.8-0.4-1.6-0.8-2.3-1.3
							c-0.3-0.1-0.5-0.3-0.7-0.5c0,0,0,0,0,0l-1-0.6c-0.7-0.4-1.3-0.9-1.9-1.4c-0.2-0.1-0.3-0.2-0.5-0.4c-4.2-3.5-7.4-8-9.4-13.1H56
							c-0.8-3.9-1.2-7.9-1.2-11.9c0-3.7,0.3-7.3,1-10.8H28.2l0.2-0.7c0.1-0.2,0.2-0.5,0.3-0.7l0.3-0.7c0.1-0.2,0.2-0.5,0.3-0.7
							l0.2-0.4c0.2-0.4,0.4-0.7,0.5-1.1c0.3-0.5,0.5-1,0.8-1.5c0.4-0.7,0.9-1.4,1.4-2.1c0.2-0.3,0.5-0.7,0.7-1
							c0.3-0.4,0.6-0.8,0.9-1.1c0.4-0.5,0.8-1,1.3-1.4l0.6-0.6c0.2-0.2,0.5-0.5,0.7-0.7c0,0,0.1-0.1,0.1-0.1c0.3-0.3,0.6-0.6,1-0.9
							c0.1-0.1,0.2-0.1,0.2-0.2c0.5-0.4,1-0.8,1.5-1.2c0.2-0.2,0.5-0.4,0.7-0.5l0.6-0.4c0.5-0.3,1-0.6,1.4-0.9
							c0.7-0.4,1.4-0.8,2.1-1.2c0.5-0.3,1.1-0.5,1.6-0.8c0,0,0.1,0,0.1,0c0.5-0.2,1.1-0.5,1.6-0.7l1.2-0.4c0.6-0.2,1.1-0.4,1.7-0.5
							c0.6-0.2,1.1-0.3,1.7-0.4c0.4-0.1,0.8-0.2,1.2-0.2c0.6-0.1,1.3-0.2,1.9-0.3c0.3,0,0.6-0.1,1-0.1c0.1,0,0.1,0,0.2,0
							c0.4,0,0.8-0.1,1.2-0.1c0.6,0,1.2,0,1.7,0c0.2,0,0.5,0,0.7,0l0.5,0c0.1,0,0.1,0,0.2,0l0.3,0l0.3,0c0.3,0,0.6,0,0.8,0.1
							c0.2,0,0.4,0,0.6,0.1c0.2,0,0.4,0,0.6,0.1l0.7,0.1c0.1,0,0.1,0,0.2,0c4.6-7.2,10.8-13.3,18-17.9c-0.2-0.1-0.4-0.2-0.6-0.3
							c0,0-0.1,0-0.1,0c-0.4-0.2-0.7-0.3-1.1-0.5c-0.1,0-0.1,0-0.2-0.1c-0.4-0.2-0.8-0.3-1.1-0.5c-0.4-0.2-0.8-0.3-1.3-0.5
							c-0.8-0.3-1.7-0.6-2.6-0.9c-1.3-0.4-2.5-0.7-3.8-1c-0.1,0-0.1,0-0.1,0L70,14.5c-0.4-0.1-0.8-0.2-1.2-0.2c-0.1,0-0.2,0-0.3-0.1
							c-0.4-0.1-0.8-0.1-1.2-0.2c-0.5-0.1-0.9-0.1-1.4-0.2c-0.4-0.1-0.8-0.1-1.1-0.1c-0.2,0-0.5-0.1-0.7-0.1c-0.3,0-0.6-0.1-0.9-0.1
							c-0.9-0.1-1.8-0.1-2.7-0.1L58.9,13.3L58.9,13.3L58.9,13.3z"/>
					</defs>
					<clipPath id="SVGID_00000054987153785666485380000008230625066696312962_">
						<use xlink:href="#SVGID_00000169517681744677839270000016670664894624026272_"  style="overflow:visible;"/>
					</clipPath>
					
						<linearGradient id="SVGID_00000142168646319967817850000003200046843324236186_" gradientUnits="userSpaceOnUse" x1="3.621" y1="67.403" x2="82.279" y2="67.403" gradientTransform="matrix(1 0 0 -1 0 136)">
						<stop  offset="0" style="stop-color:#F7941D"/>
						<stop  offset="0" style="stop-color:#F7941D"/>
						<stop  offset="1" style="stop-color:#ED1968"/>
					</linearGradient>
					
						<path style="clip-path:url(#SVGID_00000054987153785666485380000008230625066696312962_);fill:url(#SVGID_00000142168646319967817850000003200046843324236186_);" d="
						M3.6,13.3h78.7v110.5H3.6V13.3z"/>
				</g>
			</g>
		</g>
	</g>
</g>
<g>
	<defs>
		<rect id="SVGID_00000147188161436074265650000009634537256752578230_" x="185.8" y="33.9" width="342.6" height="69.7"/>
	</defs>
	<clipPath id="SVGID_00000040570648983449513200000010588656173213335743_">
		<use xlink:href="#SVGID_00000147188161436074265650000009634537256752578230_"  style="overflow:visible;"/>
	</clipPath>
	<g style="clip-path:url(#SVGID_00000040570648983449513200000010588656173213335743_);">
		<g>
			<defs>
				<rect id="SVGID_00000178894136634494998640000005430983914286323885_" x="-27.3" y="-329.4" width="763" height="539.5"/>
			</defs>
			<clipPath id="SVGID_00000127731425285360636210000008954576981487002284_">
				<use xlink:href="#SVGID_00000178894136634494998640000005430983914286323885_"  style="overflow:visible;"/>
			</clipPath>
			<g style="clip-path:url(#SVGID_00000127731425285360636210000008954576981487002284_);">
				<g>
					<defs>
						<path id="SVGID_00000091706979014725992190000001708423854251569813_" d="M197.5,43.3c-1.3,0-2.4,0.4-3.3,1.3
							c-0.9,0.9-1.3,2-1.3,3.3v43.5c0,1.3,0.4,2.4,1.3,3.3c0.9,0.9,2,1.3,3.3,1.3h25.2c1.3,0,2.4-0.4,3.3-1.2
							c0.9-0.8,1.3-1.8,1.3-3.1c0-1.1-0.4-2.2-1.3-3.1c-0.9-0.9-2-1.3-3.3-1.3h-20.4V73.5h17c1.3,0,2.4-0.4,3.3-1.2
							c0.9-0.8,1.3-1.8,1.3-3.1c0-1.3-0.4-2.4-1.3-3.2c-0.9-0.8-2-1.2-3.3-1.2h-17V52h20.4c1.3,0,2.4-0.4,3.3-1.2
							c0.9-0.8,1.3-1.8,1.3-3.1c0-1.3-0.4-2.4-1.3-3.2c-0.9-0.8-2-1.2-3.3-1.2L197.5,43.3L197.5,43.3z"/>
					</defs>
					<clipPath id="SVGID_00000173877096804903254390000012374115501199295641_">
						<use xlink:href="#SVGID_00000091706979014725992190000001708423854251569813_"  style="overflow:visible;"/>
					</clipPath>
					
						<linearGradient id="SVGID_00000026122255814382914130000000295347296675211439_" gradientUnits="userSpaceOnUse" x1="-696.7596" y1="609.3614" x2="-695.8527" y2="609.3614" gradientTransform="matrix(349.9891 98.6346 -98.6346 349.9891 304145.3125 -144483.2344)">
						<stop  offset="0" style="stop-color:#F7941D"/>
						<stop  offset="0" style="stop-color:#F7941D"/>
						<stop  offset="1" style="stop-color:#ED1968"/>
					</linearGradient>
					
						<path style="clip-path:url(#SVGID_00000173877096804903254390000012374115501199295641_);fill:url(#SVGID_00000026122255814382914130000000295347296675211439_);" d="
						M195.5,34.3l45.7,12.9L224.8,105l-45.7-12.9L195.5,34.3z"/>
				</g>
				<g>
					<defs>
						<path id="SVGID_00000041999010251164172430000009790319401764964242_" d="M246.6,86.9c-1.6-1.1-2.9-2.6-3.9-4.5
							c-0.9-1.9-1.4-4-1.4-6.4c0-2.4,0.5-4.6,1.4-6.5c0.9-1.9,2.2-3.4,3.9-4.5c1.7-1.1,3.6-1.7,5.7-1.7c2.2,0,4.1,0.5,5.8,1.7
							c1.7,1.1,3,2.6,3.9,4.5c0.9,1.9,1.4,4.1,1.4,6.5c0,2.4-0.4,4.5-1.4,6.4c-0.9,1.9-2.2,3.4-3.9,4.5c-1.7,1.1-3.6,1.7-5.8,1.7
							C250.2,88.5,248.2,88,246.6,86.9 M264.3,41.6c-0.9,0.9-1.3,2-1.3,3.3v14.8c-0.5-0.4-1-0.8-1.5-1.2c-1.3-1-2.9-1.8-4.7-2.5
							c-1.8-0.7-3.8-1-5.9-1c-3.4,0-6.4,0.9-9.2,2.7c-2.8,1.8-5,4.2-6.6,7.4c-1.6,3.1-2.4,6.8-2.4,10.9c0,4.1,0.8,7.7,2.4,10.8
							c1.6,3.1,3.9,5.6,6.7,7.4c2.8,1.8,6,2.7,9.4,2.7c1.9,0,3.7-0.3,5.3-0.9c1.6-0.6,3.1-1.4,4.2-2.3c0.9-0.7,1.7-1.3,2.3-2
							c0,1.3,0.5,2.3,1.3,3.2c0.9,0.9,1.9,1.3,3.2,1.3s2.4-0.4,3.2-1.3c0.9-0.9,1.3-2,1.3-3.3V44.9c0-1.4-0.4-2.5-1.3-3.3
							s-1.9-1.3-3.2-1.3S265.1,40.8,264.3,41.6"/>
					</defs>
					<clipPath id="SVGID_00000112621026697338796070000002273293318661981607_">
						<use xlink:href="#SVGID_00000041999010251164172430000009790319401764964242_"  style="overflow:visible;"/>
					</clipPath>
					
						<linearGradient id="SVGID_00000098210701348197143380000002951020438246548386_" gradientUnits="userSpaceOnUse" x1="-696.7601" y1="609.3695" x2="-695.8531" y2="609.3695" gradientTransform="matrix(350.0702 98.6575 -98.6575 350.0702 304220 -144531.6094)">
						<stop  offset="0" style="stop-color:#F7941D"/>
						<stop  offset="0" style="stop-color:#F7941D"/>
						<stop  offset="1" style="stop-color:#ED1968"/>
					</linearGradient>
					
						<path style="clip-path:url(#SVGID_00000112621026697338796070000002273293318661981607_);fill:url(#SVGID_00000098210701348197143380000002951020438246548386_);" d="
						M235.5,30l51.3,14.4l-17.7,62.6l-51.3-14.4L235.5,30z"/>
				</g>
				<g>
					<defs>
						<path id="SVGID_00000115500099544934581250000004785631008324649626_" d="M285.3,68.5c-1.3,0-2.4,0.4-3.3,1.2
							c-0.9,0.8-1.3,1.9-1.3,3.2s0.5,2.4,1.3,3.2c0.9,0.9,2,1.3,3.3,1.3h13.1c1.3,0,2.4-0.4,3.3-1.3c0.9-0.8,1.3-1.9,1.3-3.1
							c0-1.3-0.4-2.4-1.3-3.3c-0.9-0.9-2-1.3-3.3-1.3H285.3z"/>
					</defs>
					<clipPath id="SVGID_00000119078423548386201950000001067676200416957857_">
						<use xlink:href="#SVGID_00000115500099544934581250000004785631008324649626_"  style="overflow:visible;"/>
					</clipPath>
					
						<linearGradient id="SVGID_00000109728470105973028100000001405769748945193150_" gradientUnits="userSpaceOnUse" x1="-696.7599" y1="609.3665" x2="-695.853" y2="609.3665" gradientTransform="matrix(350.04 98.649 -98.649 350.04 304195.25 -144524.3125)">
						<stop  offset="0" style="stop-color:#F7941D"/>
						<stop  offset="0" style="stop-color:#F7941D"/>
						<stop  offset="1" style="stop-color:#ED1968"/>
					</linearGradient>
					
						<path style="clip-path:url(#SVGID_00000119078423548386201950000001067676200416957857_);fill:url(#SVGID_00000109728470105973028100000001405769748945193150_);" d="
						M282.3,62.7l23,6.5l-4,14.1l-23-6.5L282.3,62.7z"/>
				</g>
				<g>
					<defs>
						<path id="SVGID_00000066473631861279917660000005286669958012831642_" d="M326.6,44.7c-3.3,1.4-6.2,3.3-8.7,5.8
							c-2.5,2.5-4.5,5.4-5.9,8.6c-1.4,3.3-2.1,6.8-2.1,10.6s0.7,7.3,2.1,10.5c1.4,3.3,3.4,6.2,5.9,8.6s5.4,4.4,8.7,5.8
							c3.3,1.4,6.9,2.1,10.7,2.1c3,0,5.9-0.4,8.6-1.2c2.7-0.8,5.3-2,7.6-3.4c0.6-0.4,1.2-1,1.6-1.6c0.5-0.7,0.7-1.5,0.7-2.5v-16
							c0-1.3-0.4-2.4-1.3-3.3s-1.9-1.3-3.2-1.3h-12.4c-1.3,0-2.4,0.4-3.3,1.3c-0.9,0.9-1.3,1.9-1.3,3.2c0,1.3,0.5,2.4,1.3,3.2
							c0.9,0.9,2,1.3,3.3,1.3h7.1v9.8c-1,0.4-2.3,0.7-3.8,0.9c-1.8,0.3-3.5,0.5-5,0.5c-3.3,0-6.2-0.8-8.9-2.4
							c-2.7-1.6-4.9-3.9-6.4-6.6c-1.6-2.8-2.4-5.8-2.4-9c0-3.3,0.8-6.3,2.4-9.1c1.5-2.7,3.7-4.9,6.4-6.6c2.7-1.6,5.7-2.4,8.9-2.4
							c1.5,0,3,0.1,4.4,0.5c1.4,0.3,2.7,0.7,4,1.3c0.4,0.2,0.8,0.4,1.3,0.5c0.4,0.1,0.8,0.2,1.2,0.2c1.3,0,2.3-0.5,3.1-1.4
							c0.8-1,1.2-2,1.2-3.2c0-0.7-0.2-1.4-0.6-2.1c-0.4-0.7-0.9-1.2-1.7-1.6c-1.9-1-4-1.8-6.1-2.2c-2.2-0.5-4.5-0.8-6.9-0.8
							C333.5,42.6,329.9,43.3,326.6,44.7"/>
					</defs>
					<clipPath id="SVGID_00000049926030768813491680000004241222972608258965_">
						<use xlink:href="#SVGID_00000066473631861279917660000005286669958012831642_"  style="overflow:visible;"/>
					</clipPath>
					
						<linearGradient id="SVGID_00000157988652137166881600000010107015037123601851_" gradientUnits="userSpaceOnUse" x1="-696.7599" y1="609.3746" x2="-695.8529" y2="609.3746" gradientTransform="matrix(350.0279 98.6455 -98.6455 350.0279 304189.375 -144535.8438)">
						<stop  offset="0" style="stop-color:#F7941D"/>
						<stop  offset="0" style="stop-color:#F7941D"/>
						<stop  offset="1" style="stop-color:#ED1968"/>
					</linearGradient>
					
						<path style="clip-path:url(#SVGID_00000049926030768813491680000004241222972608258965_);fill:url(#SVGID_00000157988652137166881600000010107015037123601851_);" d="
						M313.2,30.6l56.8,16l-17.5,62.3l-56.8-16L313.2,30.6z"/>
				</g>
				<g>
					<defs>
						<path id="SVGID_00000130647263141338215120000015532790192226573705_" d="M376.8,86.9c-1.7-1.1-2.9-2.6-3.9-4.5
							c-0.9-1.9-1.4-4-1.4-6.4c0-2.4,0.5-4.6,1.4-6.5c0.9-1.9,2.2-3.4,3.9-4.5c1.7-1.1,3.6-1.7,5.7-1.7c2.2,0,4.2,0.5,5.8,1.7
							c1.7,1.1,2.9,2.6,3.9,4.5c0.9,1.9,1.4,4.1,1.4,6.5c0,2.4-0.5,4.5-1.4,6.4c-0.9,1.9-2.2,3.4-3.9,4.5c-1.7,1.1-3.6,1.7-5.8,1.7
							C380.4,88.5,378.5,88,376.8,86.9 M394.5,56.3c-0.9,0.9-1.3,2-1.3,3.3v0.1c-0.4-0.4-0.9-0.8-1.5-1.2c-1.3-1-2.9-1.8-4.7-2.5
							s-3.8-1-6-1c-3.4,0-6.4,0.9-9.2,2.7s-5,4.2-6.6,7.4c-1.6,3.1-2.4,6.8-2.4,10.9c0,4.1,0.8,7.7,2.4,10.8
							c1.6,3.1,3.8,5.6,6.7,7.4c2.8,1.8,6,2.7,9.4,2.7c1.9,0,3.7-0.3,5.3-0.9c1.6-0.6,3.1-1.4,4.3-2.3c0.8-0.6,1.6-1.3,2.3-2
							c0,1.3,0.4,2.3,1.3,3.2c0.9,0.9,1.9,1.3,3.2,1.3c1.3,0,2.4-0.4,3.2-1.3c0.9-0.9,1.3-2,1.3-3.3V59.6c0-1.4-0.4-2.5-1.3-3.3
							s-1.9-1.3-3.2-1.3C396.5,55,395.4,55.4,394.5,56.3"/>
					</defs>
					<clipPath id="SVGID_00000135653969348407346960000007977691017683719827_">
						<use xlink:href="#SVGID_00000130647263141338215120000015532790192226573705_"  style="overflow:visible;"/>
					</clipPath>
					
						<linearGradient id="SVGID_00000072964798491472651580000008377656368655058615_" gradientUnits="userSpaceOnUse" x1="-696.7597" y1="609.3777" x2="-695.8527" y2="609.3777" gradientTransform="matrix(350.003 98.6385 -98.6385 350.003 304170.0312 -144533.9062)">
						<stop  offset="0" style="stop-color:#F7941D"/>
						<stop  offset="0" style="stop-color:#F7941D"/>
						<stop  offset="1" style="stop-color:#ED1968"/>
					</linearGradient>
					
						<path style="clip-path:url(#SVGID_00000135653969348407346960000007977691017683719827_);fill:url(#SVGID_00000072964798491472651580000008377656368655058615_);" d="
						M365.8,44.7l47.4,13.4l-13.8,49L352,93.7L365.8,44.7z"/>
				</g>
				<g>
					<defs>
						<path id="SVGID_00000054964242668543726210000018375695987224455597_" d="M424.5,86.9c-1.7-1.1-3-2.6-3.9-4.5
							c-0.9-1.9-1.4-4-1.4-6.4c0-2.4,0.5-4.6,1.4-6.5c0.9-1.9,2.2-3.4,3.9-4.5c1.7-1.1,3.6-1.7,5.7-1.7c2.2,0,4.2,0.5,5.8,1.7
							c1.7,1.1,2.9,2.6,3.9,4.5c0.9,1.9,1.4,4.1,1.4,6.5c0,2.4-0.5,4.5-1.4,6.4c-0.9,1.9-2.2,3.4-3.9,4.5c-1.7,1.1-3.6,1.7-5.8,1.7
							C428.1,88.5,426.2,88,424.5,86.9 M442.2,56.3c-0.9,0.9-1.3,2-1.3,3.3v0.1c-0.4-0.4-0.9-0.8-1.5-1.2c-1.3-1-2.9-1.8-4.7-2.5
							s-3.8-1-6-1c-3.4,0-6.4,0.9-9.2,2.7s-5,4.2-6.6,7.4c-1.6,3.1-2.4,6.8-2.4,10.9c0,4.1,0.8,7.7,2.4,10.8
							c1.6,3.1,3.8,5.6,6.7,7.4c2.8,1.8,6,2.7,9.4,2.7c1.9,0,3.7-0.3,5.3-0.9c1.6-0.6,3.1-1.4,4.3-2.3c0.9-0.7,1.7-1.3,2.3-2
							c0,1.3,0.4,2.4,1.3,3.2c0.9,0.9,1.9,1.3,3.2,1.3s2.4-0.4,3.2-1.3c0.9-0.9,1.3-2,1.3-3.3V59.6c0-1.4-0.4-2.5-1.3-3.3
							s-1.9-1.3-3.2-1.3S443.1,55.4,442.2,56.3"/>
					</defs>
					<clipPath id="SVGID_00000081634631595743323460000005686950897491189120_">
						<use xlink:href="#SVGID_00000054964242668543726210000018375695987224455597_"  style="overflow:visible;"/>
					</clipPath>
					
						<linearGradient id="SVGID_00000133531259036751651690000017064244962637088174_" gradientUnits="userSpaceOnUse" x1="-696.7597" y1="609.3817" x2="-695.8527" y2="609.3817" gradientTransform="matrix(350.001 98.638 -98.638 350.001 304172.2188 -144546.9219)">
						<stop  offset="0" style="stop-color:#F7941D"/>
						<stop  offset="0" style="stop-color:#F7941D"/>
						<stop  offset="1" style="stop-color:#ED1968"/>
					</linearGradient>
					
						<path style="clip-path:url(#SVGID_00000081634631595743323460000005686950897491189120_);fill:url(#SVGID_00000133531259036751651690000017064244962637088174_);" d="
						M413.5,44.7l47.4,13.4l-13.8,49l-47.4-13.4L413.5,44.7z"/>
				</g>
				<g>
					<defs>
						<path id="SVGID_00000114062859726986753480000008722766713006943412_" d="M471.4,86.9c-1.7-1.1-2.9-2.6-3.9-4.5
							c-0.9-1.9-1.4-4-1.4-6.4c0-2.4,0.5-4.6,1.4-6.5c0.9-1.9,2.2-3.4,3.9-4.5c1.7-1.1,3.6-1.7,5.7-1.7c2.2,0,4.1,0.5,5.8,1.7
							c1.7,1.1,2.9,2.6,3.9,4.5c0.9,1.9,1.4,4.1,1.4,6.5c0,2.4-0.5,4.5-1.4,6.4c-0.9,1.9-2.2,3.4-3.9,4.5c-1.7,1.1-3.6,1.7-5.8,1.7
							C475,88.5,473.1,88,471.4,86.9 M489.2,41.6c-0.9,0.9-1.3,2-1.3,3.3v14.8c-0.4-0.4-0.9-0.8-1.5-1.2c-1.3-1-2.9-1.8-4.7-2.5
							c-1.8-0.7-3.8-1-6-1c-3.4,0-6.4,0.9-9.2,2.7s-5,4.2-6.6,7.4c-1.6,3.1-2.4,6.8-2.4,10.9c0,4.1,0.8,7.7,2.4,10.8
							c1.6,3.1,3.9,5.6,6.7,7.4c2.8,1.8,6,2.7,9.4,2.7c1.9,0,3.7-0.3,5.3-0.9c1.6-0.6,3.1-1.4,4.3-2.3c0.8-0.6,1.6-1.3,2.3-2
							c0,1.3,0.4,2.3,1.3,3.2c0.9,0.9,1.9,1.3,3.2,1.3c1.3,0,2.4-0.4,3.2-1.3c0.9-0.9,1.3-2,1.3-3.3V44.9c0-1.4-0.4-2.5-1.3-3.3
							c-0.9-0.9-1.9-1.3-3.2-1.3C491.1,40.3,490,40.8,489.2,41.6"/>
					</defs>
					<clipPath id="SVGID_00000003784744632848720680000004516589626170967727_">
						<use xlink:href="#SVGID_00000114062859726986753480000008722766713006943412_"  style="overflow:visible;"/>
					</clipPath>
					
						<linearGradient id="SVGID_00000004513897993734493680000011406015985693800118_" gradientUnits="userSpaceOnUse" x1="-696.7596" y1="609.3872" x2="-695.8527" y2="609.3872" gradientTransform="matrix(349.9893 98.6347 -98.6347 349.9893 304167.9688 -144563.125)">
						<stop  offset="0" style="stop-color:#F7941D"/>
						<stop  offset="0" style="stop-color:#F7941D"/>
						<stop  offset="1" style="stop-color:#ED1968"/>
					</linearGradient>
					
						<path style="clip-path:url(#SVGID_00000003784744632848720680000004516589626170967727_);fill:url(#SVGID_00000004513897993734493680000011406015985693800118_);" d="
						M460.4,30l51.2,14.4L494,107.1l-51.2-14.4L460.4,30z"/>
				</g>
				<g>
					<defs>
						<path id="SVGID_00000134250692264044859950000007949142171818241935_" d="M507.5,57.1c-0.9,0.9-1.3,2-1.3,3.3v31.1
							c0,1.3,0.4,2.4,1.3,3.3c0.9,0.9,1.9,1.3,3.2,1.3c1.3,0,2.4-0.4,3.2-1.3c0.9-0.9,1.3-2,1.3-3.3V60.3c0-1.3-0.4-2.4-1.3-3.3
							c-0.9-0.9-1.9-1.3-3.2-1.3C509.4,55.8,508.3,56.2,507.5,57.1 M507.1,42.7c-0.8,0.5-1.2,1.5-1.2,3v1.4c0,1.4,0.4,2.4,1.1,2.9
							c0.7,0.6,1.9,0.8,3.6,0.8c1.7,0,2.9-0.3,3.7-0.8s1.1-1.5,1.1-3v-1.4c0-1.4-0.4-2.4-1.1-2.9c-0.7-0.6-1.9-0.8-3.7-0.8
							C509.1,41.9,507.9,42.2,507.1,42.7"/>
					</defs>
					<clipPath id="SVGID_00000065044829180450884920000001156343630595258276_">
						<use xlink:href="#SVGID_00000134250692264044859950000007949142171818241935_"  style="overflow:visible;"/>
					</clipPath>
					
						<linearGradient id="SVGID_00000072962636117473564450000005494278655753900423_" gradientUnits="userSpaceOnUse" x1="-696.7601" y1="609.3848" x2="-695.8531" y2="609.3848" gradientTransform="matrix(350.0555 98.6533 -98.6533 350.0555 304227.7188 -144597.9375)">
						<stop  offset="0" style="stop-color:#F7941D"/>
						<stop  offset="0" style="stop-color:#F7941D"/>
						<stop  offset="1" style="stop-color:#ED1968"/>
					</linearGradient>
					
						<path style="clip-path:url(#SVGID_00000065044829180450884920000001156343630595258276_);fill:url(#SVGID_00000072962636117473564450000005494278655753900423_);" d="
						M506.6,39.4l22.9,6.5l-14.8,52.7l-22.9-6.5L506.6,39.4z"/>
				</g>
			</g>
		</g>
	</g>
</g>
</svg>
